# Blender 4.4.3
# www.blender.org
mtllib mildRoundRock.mtl
o Sphere.001
v 0.488046 0.317835 -1.086006
v 1.530003 -0.309066 -0.027676
v 1.503351 -0.685573 -0.027407
v 1.411793 -1.008803 0.005951
v 0.069028 0.916967 0.940580
v 0.282106 0.746990 1.235748
v -0.166508 1.011732 0.655787
v -0.295807 0.985678 0.644917
v -0.411370 0.967429 0.595996
v -0.503537 0.957033 0.514580
v -1.056631 -0.752859 -1.063091
v -0.946300 -1.033117 -1.002315
v -0.767716 0.876441 0.103368
v -0.005420 0.049949 -1.355606
v 0.189438 0.305906 -1.160836
v 0.227597 0.597331 -0.920731
v -1.053357 -1.021982 -0.732502
v -1.192672 -0.741723 -0.780892
v -0.792180 -1.279379 -0.870500
v -0.787822 -1.281618 -0.873588
v -0.670662 -1.341727 -0.915481
v -0.939123 -1.203951 -0.610149
v 0.446665 0.599822 1.399880
v 0.556543 0.565568 1.412939
v 1.430250 -1.008803 0.208788
v 1.347338 -1.137020 0.027294
v 1.300162 -1.189690 -0.021989
v -0.036572 -1.689855 0.421595
v 1.520746 -0.685573 0.177802
v 1.001933 0.134359 1.445457
v 0.915645 -0.777007 1.418660
v 1.478652 -0.896805 0.409344
v 0.532983 0.131770 -1.174608
v 1.464432 -0.685573 -0.127619
v 1.440105 -0.345280 -0.281718
v 1.382544 -1.008803 -0.071086
v 1.291079 -1.157122 -0.095445
v -0.677851 0.894625 0.447261
v -0.730868 0.889806 0.291880
v -0.817309 0.855475 0.107893
v -1.423893 -0.015900 -0.329462
v -0.051936 1.036224 0.637388
v -0.457750 0.972010 0.484148
v -0.563224 0.953366 0.414172
v -0.164777 1.019978 0.612998
v -0.269795 1.003264 0.577036
v -0.363014 0.988043 0.535891
v 0.167622 0.736930 -0.766763
v 0.143610 1.048080 0.623726
v -0.656353 0.924477 0.292034
v -0.879847 -1.036386 -1.088188
v -0.951233 -0.754878 -1.171209
v -0.007607 0.017069 -1.377914
v -0.076851 -0.005899 -1.382944
v -0.670636 -1.292120 -1.038773
v -0.012594 -1.085786 -1.332994
v 0.300069 -0.025790 -1.337206
v 0.356606 0.593460 -0.904420
v 0.755549 0.311541 -0.923003
v 0.755132 0.893479 -0.027255
v 0.222472 0.737351 -0.760348
v -0.884588 -1.488324 0.695887
v -0.208193 -1.671559 0.688089
v 0.543147 -1.028293 1.359394
v -1.444074 -0.859609 1.018312
v -0.160084 0.875138 0.974030
v -0.006044 0.685644 1.303936
v -0.332683 0.927202 0.762152
v -0.462114 0.923200 0.668706
v -0.006233 0.658740 1.334175
v -0.633274 0.878832 0.603071
v 0.146096 1.046945 0.626624
v 0.335978 0.756929 1.202681
v 0.521758 1.000500 0.366426
v 0.147894 1.048110 0.622688
v -1.482924 -0.762600 1.015678
v -1.452722 -0.156533 0.617824
v -0.675555 0.621017 0.926707
v -0.259130 0.550637 1.287232
v 1.440187 -0.097154 -0.193190
v 1.410956 -0.272029 -0.330403
v 0.781889 0.172128 -0.972644
v 1.178335 0.335885 -0.323506
v -1.411844 -0.066726 -0.390733
v -0.445797 -0.215181 -1.374809
v -0.876764 -0.554945 -1.247317
v -0.941462 -0.326767 -1.046521
v -0.933045 -0.563091 -1.197875
vn 0.9396 -0.0750 -0.3340
vn 0.8939 -0.2876 -0.3438
vn 0.8851 -0.4584 -0.0805
vn 0.0691 0.9476 0.3119
vn 0.1045 0.8926 0.4386
vn -0.1780 0.9676 0.1793
vn -0.2086 0.8979 0.3876
vn -0.2849 0.8920 0.3509
vn -0.8295 -0.4371 -0.3477
vn -0.7438 -0.6177 -0.2555
vn -0.1273 0.5627 -0.8168
vn 0.7749 0.3091 -0.5514
vn 0.9180 0.0270 0.3956
vn -0.1765 -0.5893 0.7884
vn 0.4444 -0.8285 0.3406
vn 0.9940 -0.0704 -0.0843
vn 0.9574 -0.2771 -0.0818
vn 0.2158 -0.9228 -0.3193
vn 0.8306 -0.4638 -0.3082
vn -0.3470 0.8922 0.2891
vn -0.4239 0.8985 0.1141
vn -0.4086 0.9126 0.0152
vn -0.2224 0.9621 0.1579
vn -0.2100 0.9624 0.1720
vn -0.3990 0.8938 0.2047
vn -0.2331 0.9629 0.1361
vn -0.2428 0.9639 0.1091
vn -0.0297 0.9261 0.3762
vn -0.5204 -0.7922 -0.3188
vn -0.6972 -0.3810 -0.6073
vn -0.6455 -0.6257 -0.4380
vn 0.0948 0.7514 -0.6530
vn 0.1549 0.6058 -0.7804
vn 0.4148 0.6302 -0.6564
vn -0.3434 -0.9306 -0.1264
vn -0.6177 0.4038 0.6748
vn -0.0002 0.7448 0.6672
vn -0.0657 0.8478 0.5262
vn -0.1155 0.9099 0.3983
vn -0.0361 0.9751 -0.2189
vn 0.1879 0.8169 0.5453
vn 0.2854 0.8904 0.3546
vn -0.4054 0.7175 0.5664
vn -0.7949 0.5781 0.1840
vn -0.1573 -0.0380 0.9868
vn 0.5174 0.7235 -0.4570
vn 0.5023 0.4289 -0.7508
vn 0.6438 -0.2281 -0.7304
vn 0.9285 0.1245 -0.3499
vn 0.7669 0.6117 0.1942
vn -0.9130 -0.3881 -0.1254
vn 0.2013 0.5020 -0.8411
vn -0.8213 0.1450 -0.5518
vn -0.5693 0.4462 -0.6905
vn -0.6969 -0.0335 -0.7164
vn -0.1171 -0.1711 -0.9783
vn -0.4577 0.6523 -0.6041
vt 0.537011 0.428571
vt 0.550750 0.500000
vt 0.526316 0.500000
vt 0.526316 0.428571
vt 0.535191 0.357143
vt 0.526316 0.357143
vt 0.526316 0.325558
vt 0.504983 0.357143
vt 0.369421 0.911028
vt 0.368421 0.911482
vt 0.368421 0.910678
vt 0.325714 0.785714
vt 0.315789 0.857143
vt 0.315789 0.785714
vt 0.300016 0.928572
vt 0.266307 0.937120
vt 0.263158 0.928572
vt 0.263158 0.866007
vt 0.210526 0.928572
vt 0.210526 0.903482
vt 0.157895 0.928572
vt 0.157895 0.910490
vt 0.874312 0.357143
vt 0.875961 0.428571
vt 0.842105 0.428571
vt 0.842105 0.357143
vt 0.880101 0.304738
vt 0.842105 0.286302
vt 0.742861 0.578580
vt 0.736842 0.589235
vt 0.736842 0.581859
vt 0.649578 0.639895
vt 0.564753 0.653126
vt 0.543494 0.552082
vt 0.556379 0.515376
vt 0.650661 0.610568
vt 0.523119 0.513586
vt 0.353197 0.612687
vt 0.360674 0.417005
vt 0.484095 0.381893
vt 0.506367 0.428571
vt 0.103916 0.375537
vt 0.152975 0.213728
vt 0.197539 0.107848
vt 0.306980 0.347446
vt 0.298252 0.079686
vt 0.532841 0.312601
vt 0.522956 0.500000
vt 0.813936 0.283869
vt 0.697781 0.343432
vt 0.540452 0.320607
vt 0.288883 0.079686
vt 0.826105 0.266411
vt 0.105263 0.928572
vt 0.105263 0.897672
vt 0.052632 0.904198
vt 0.052632 0.927944
vt 0.000000 0.914962
vt 0.000000 0.900085
vt 1.000000 0.900085
vt 1.000000 0.914962
vt 0.947368 0.882558
vt 0.949972 0.878734
vt 0.205369 0.942571
vt 0.163219 0.943022
vt 0.260009 0.937120
vt 0.215684 0.942571
vt 0.152571 0.943022
vt 0.108979 0.938656
vt 0.101548 0.938656
vt 0.056815 0.928572
vt 0.315789 0.925931
vt 0.318212 0.857143
vt 0.841393 0.285714
vt 0.826322 0.428571
vt 0.829365 0.357143
vt 0.814705 0.285714
vt 0.698588 0.714286
vt 0.693895 0.757292
vt 0.687530 0.756176
vt 0.685861 0.714286
vt 0.716715 0.642857
vt 0.684211 0.708993
vt 0.684211 0.642857
vt 0.652053 0.642857
vt 0.343807 0.545933
vt 0.101875 0.397465
vt 0.227883 0.761182
vt 0.134988 0.807403
vt 0.315789 0.738067
vt 0.269667 0.785714
vt 0.266661 0.778539
vt 0.268429 0.857143
vt 0.539717 0.807964
vt 0.947368 0.892637
vt 0.460258 0.860705
vt 0.325196 0.722412
vt 0.326710 0.784041
vt 0.100063 0.894333
vt 0.929711 0.601357
vt 0.684210 0.601667
vt 0.708897 0.568147
vt 0.526316 0.516819
vt 0.923204 0.589258
vt 0.833250 0.530074
vt 0.822160 0.473878
vt 0.774538 0.544594
vt 0.815065 0.475402
vt 0.937761 0.888377
s 0
f 34/1/1 35/2/1 2/3/1 3/4/1
f 36/5/2 34/1/2 3/4/2 4/6/2
f 26/7/3 4/6/3 25/8/3
f 75/9/4 49/10/4 72/11/4
f 73/12/5 5/13/5 6/14/5
f 42/15/6 45/16/6 7/17/6
f 66/18/7 7/17/7 8/19/7 68/20/7
f 68/20/8 8/19/8 9/21/8 69/22/8
f 17/23/9 18/24/9 11/25/9 12/26/9
f 22/27/10 17/23/10 12/26/10 19/28/10
f 54/29/11 14/30/11 53/31/11
f 59/32/12 83/33/12 80/34/12 81/35/12 82/36/12
f 2/37/13 30/38/13 31/39/13 32/40/13 29/41/13
f 65/42/14 62/43/14 63/44/14 64/45/14
f 64/45/15 63/44/15 28/46/15 27/47/15 26/7/15 25/8/15 32/40/15 31/39/15
f 3/4/16 2/48/16 29/41/16
f 4/6/17 3/4/17 29/41/17 32/40/17 25/8/17
f 55/49/18 56/50/18 37/51/18 27/47/18 28/52/18 21/53/18
f 27/47/19 37/51/19 36/5/19 4/6/19 26/7/19
f 69/22/20 9/21/20 10/54/20 71/55/20
f 38/56/21 44/57/21 50/58/21 39/59/21
f 39/60/22 50/61/22 13/62/22 40/63/22
f 8/19/23 46/64/23 47/65/23 9/21/23
f 7/17/24 45/66/24 46/67/24 8/19/24
f 71/55/25 10/54/25 44/57/25 38/56/25
f 9/21/26 47/68/26 43/69/26 10/54/26
f 10/54/27 43/70/27 44/71/27
f 72/11/28 49/10/28 42/72/28 5/73/28
f 21/53/29 20/74/29 55/49/29
f 12/26/30 11/25/30 52/75/30 51/76/30
f 19/28/31 12/26/31 51/76/31 55/77/31 20/74/31
f 16/78/32 48/79/32 61/80/32 58/81/32
f 15/82/33 16/78/33 58/83/33 1/84/33
f 1/84/34 58/83/34 59/85/34
f 20/74/35 21/53/35 28/46/35 63/44/35 62/43/35 22/27/35 19/28/35
f 77/86/36 76/87/36 79/88/36 78/89/36
f 23/90/37 6/14/37 67/91/37 70/92/37
f 6/14/38 5/13/38 66/93/38 67/91/38
f 5/13/39 42/15/39 7/17/39 66/93/39
f 60/94/40 61/80/40 48/79/40 13/95/40 50/58/40 44/71/40 43/69/40 47/65/40 46/67/40 45/16/40 42/72/40 49/10/40 75/9/40 74/96/40
f 24/97/41 73/12/41 6/14/41 23/90/41
f 5/73/42 73/98/42 74/96/42 75/9/42 72/11/42
f 71/99/43 78/89/43 79/88/43 70/92/43 67/91/43 66/18/43 68/20/43 69/22/43
f 39/60/44 40/63/44 41/100/44 77/86/44 78/89/44 71/99/44 38/56/44
f 23/90/45 70/92/45 79/88/45 76/87/45 65/42/45 64/45/45 31/39/45 30/38/45 24/97/45
f 58/81/46 61/80/46 60/94/46 83/33/46 59/85/46
f 33/101/47 1/84/47 59/32/47 82/36/47
f 34/1/48 36/5/48 37/51/48 56/50/48 57/102/48 33/101/48 82/36/48 81/35/48 35/2/48
f 35/2/49 81/35/49 80/34/49 2/3/49
f 2/103/50 80/34/50 83/33/50 60/94/50 74/96/50 73/98/50 24/97/50 30/38/50
f 22/27/51 62/43/51 65/42/51 76/87/51 77/86/51 41/100/51 84/104/51 18/24/51 17/23/51
f 53/31/52 14/30/52 15/82/52 1/84/52 33/101/52 57/102/52
f 18/24/53 84/104/53 87/105/53 88/106/53 11/25/53
f 85/107/54 86/108/54 88/106/54 87/105/54
f 11/25/55 88/106/55 86/108/55 52/75/55
f 57/102/56 56/50/56 55/77/56 51/76/56 52/75/56 86/108/56 85/107/56 54/29/56 53/31/56
f 16/78/57 15/82/57 14/30/57 54/29/57 85/107/57 87/105/57 84/104/57 41/100/57 40/63/57 13/109/57 48/79/57
