# Blender 4.4.3
# www.blender.org
mtllib tree_small.mtl
o Circle
v 0.200988 0.000000 -1.238989
v -0.498380 0.000000 -0.874891
v -0.938499 0.000000 0.291639
v -0.429830 0.000000 0.591611
v 0.097391 0.000000 1.032034
v 0.527221 0.000000 0.892374
v 1.174606 0.000000 -0.586011
v -0.000371 6.278586 -0.560199
v -0.239329 6.253566 -0.508120
v -0.421946 6.229290 -0.323162
v -0.451418 6.234861 -0.039445
v -0.297135 6.273245 0.239001
v -0.040227 6.306140 0.373805
v 0.247045 6.310354 0.321110
v 0.411816 6.303421 0.089747
v 0.404126 6.296622 -0.211094
v 0.244942 6.291506 -0.448845
v -0.375448 4.062351 -0.657634
v -0.624186 3.991406 -0.386959
v 0.507970 4.253472 -0.457808
v 0.303058 4.212379 -0.728365
v -0.172901 4.105953 0.316701
v -0.670545 3.980586 -0.070824
v -0.028495 4.145911 -0.795582
v 0.499963 4.257919 -0.084208
v -0.509560 3.984585 0.199785
v -0.623095 3.412175 -0.393313
v -0.597955 2.448384 -0.249587
v -0.652464 1.732605 -0.217980
v -0.663543 0.783281 -0.286157
v 0.338396 3.287297 -0.816550
v 0.315849 2.640006 -0.791049
v 0.378812 1.561064 -0.571253
v 0.403313 0.912854 -0.654282
v 0.329284 3.635995 0.202417
v 0.360981 2.765357 0.387790
v 0.396799 1.718689 0.531935
v 0.414282 0.780428 0.488065
v -0.604887 2.457302 0.153990
v -0.624047 1.791465 0.250263
v -0.659353 0.732699 0.142153
v -0.015241 3.285418 -0.871481
v -0.005615 2.563562 -0.793350
v -0.011117 1.591727 -0.666312
v -0.006779 0.894623 -0.771268
v 0.556006 3.524141 -0.146579
v 0.583983 2.800090 0.000503
v 0.630918 1.640409 0.170310
v 0.663543 0.842278 0.129500
v -0.482862 3.565677 0.221161
v -0.384374 2.528737 0.463662
v -0.358378 1.814803 0.475461
v -0.403313 0.712705 0.488663
v -0.414282 0.845131 -0.632667
v -0.418345 1.656760 -0.564677
v -0.376083 3.338009 -0.703556
v 0.659353 0.892859 -0.311769
v 0.624047 1.579181 -0.253305
v 0.539553 2.736014 -0.492948
v 0.015803 0.730936 0.573873
v -0.005732 2.650078 0.564030
v -0.096546 3.642106 0.334199
v -0.753702 0.000000 -0.676756
v -0.988246 0.000000 0.161542
v -0.883371 0.451022 -0.310933
v 0.766203 0.000000 0.597657
v 1.136757 0.000000 -0.275550
v 0.860193 0.441701 0.176472
v 1.015472 0.000000 -0.873854
v 0.524095 0.000000 -1.202368
v 0.723946 0.264225 -1.010855
v 0.555371 3.494570 -0.240097
v 0.545976 3.082428 -0.518808
v 0.388601 3.310001 -0.753518
v 0.543210 3.646362 -0.536895
v -0.032827 4.151194 0.282800
v 0.266219 4.058021 0.203674
v 0.413340 4.247283 0.022664
v 0.218655 4.365215 0.204908
v -0.388957 2.118765 -0.592761
v -0.552352 2.460655 -0.320238
v -0.371809 2.844542 -0.640882
v -0.079105 2.552592 -0.754763
v -0.671067 3.748556 -0.066996
v -0.630839 3.429335 -0.330255
v -0.654749 3.198298 0.018411
v -0.517794 3.552712 0.168911
v 0.018941 1.481385 0.594620
v 0.302105 1.737319 0.546335
v 0.010811 2.140236 0.574612
v -0.250659 1.808496 0.507977
v 0.230585 3.528040 0.017083
v 2.609688 4.993553 1.482183
v -0.919189 4.884666 2.740604
v -2.578651 4.643482 -0.217530
v -0.747432 4.996300 -2.863028
v 2.516417 4.996880 -2.037662
v 1.173970 8.414310 3.091786
v -2.131113 7.569226 1.589151
v -1.967989 7.717268 -1.806442
v 0.968783 8.031447 -2.907065
v 3.119100 8.176311 0.198539
v 0.231505 9.840371 0.207648
v -0.578240 4.090719 1.652308
v 1.683828 3.756842 0.992105
v 1.090079 4.733059 2.447257
v 2.969776 4.733065 -0.078393
v 1.667909 3.641340 -1.295250
v -1.544310 3.884304 -0.032639
v -2.302003 4.242277 1.211117
v -0.333458 3.613822 -1.648894
v -1.983502 4.704532 -1.726423
v 0.961743 4.733059 -2.806674
v 3.320180 6.504567 1.138079
v 3.141518 6.502049 -1.105507
v -0.141908 6.529048 3.358908
v 2.183623 6.543054 2.448333
v -2.905996 5.693409 0.379619
v -1.934453 6.001647 2.260683
v -1.705322 6.478261 -2.763419
v -2.588772 6.082352 -1.286854
v 1.873438 6.499537 -2.821352
v 0.024439 6.503714 -3.181140
v 2.564468 8.534815 1.919344
v -1.103855 8.477998 2.721681
v -2.415876 7.688685 -0.155053
v -0.668235 8.346153 -2.766828
v 2.255632 8.374674 -1.734132
v 0.774496 9.530051 1.945466
v 1.919237 9.646026 0.217153
v -1.152565 8.954697 1.209378
v -1.095807 9.339377 -1.001910
v 0.670546 9.551414 -1.692544
vn -0.7325 0.0885 -0.6750
vn 0.8038 0.1063 -0.5854
vn -0.9877 0.0953 -0.1240
vn 0.2787 0.1185 -0.9530
vn 0.2735 0.0548 0.9603
vn -0.8673 0.0747 0.4922
vn -0.3231 0.0961 -0.9415
vn 0.9989 0.0469 -0.0003
vn -0.3927 0.0105 0.9196
vn -0.0731 0.9968 -0.0312
vn -0.8774 0.4433 0.1834
vn -0.3047 0.0064 0.9524
vn 0.8035 -0.0554 -0.5928
vn -0.3983 0.0671 -0.9148
vn 0.2529 -0.0479 0.9663
vn 0.1655 0.0947 -0.9816
vn -0.8156 0.0559 0.5760
vn 0.8047 0.0480 0.5918
vn 0.9979 0.0073 -0.0642
vn -0.7603 0.0258 -0.6490
vn 0.8807 0.4670 0.0790
vn -0.8189 0.0475 -0.5720
vn -0.4425 -0.1081 -0.8902
vn 0.7928 0.0993 -0.6014
vn 0.7999 -0.0697 -0.5960
vn 0.1985 0.5049 0.8400
vn -0.2644 0.0104 0.9644
vn 0.3257 0.2261 0.9181
vn -0.9991 0.0199 0.0362
vn -0.9983 0.0551 0.0203
vn -0.8488 -0.0118 0.5286
vn 0.7032 0.5626 -0.4346
vn 0.2557 0.1392 -0.9567
vn 0.1440 -0.1611 -0.9764
vn 0.0930 -0.0760 -0.9928
vn 0.1535 0.5100 -0.8463
vn 0.8303 -0.0032 0.5573
vn 0.8515 0.1050 0.5137
vn 0.8516 0.1373 0.5058
vn -0.6194 0.2603 0.7407
vn -0.7387 -0.0022 0.6741
vn -0.7434 0.0486 0.6671
vn -0.9966 -0.0539 -0.0621
vn -0.4035 0.3210 -0.8568
vn -0.2793 0.1078 -0.9541
vn -0.8331 0.0310 -0.5522
vn -0.8046 -0.0980 -0.5857
vn 0.9988 0.0466 -0.0133
vn 0.9970 0.0456 -0.0620
vn 0.9978 0.0664 0.0031
vn -0.4669 0.3048 0.8301
vn 0.1985 -0.0335 0.9795
vn 0.3088 0.1014 0.9457
vn -0.3088 0.1882 0.9323
vn -0.9614 -0.0582 -0.2690
vn -0.6789 0.3443 -0.6485
vn 0.9065 0.1739 0.3847
vn 0.7106 0.4046 0.5756
vn 0.5468 0.1792 -0.8179
vn -0.0000 -1.0000 -0.0000
vn 0.9516 -0.0052 -0.3072
vn 0.7600 0.1030 -0.6417
vn 0.4907 0.0725 0.8683
vn 0.7551 -0.0322 0.6549
vn -0.6725 -0.0331 -0.7394
vn -0.3235 -0.0896 -0.9420
vn -0.9756 0.0052 0.2197
vn -0.9897 -0.0020 -0.1434
vn -0.0654 0.0295 0.9974
vn -0.2494 0.0031 0.9684
vn -0.0525 -0.9520 0.3016
vn 0.7153 -0.6435 0.2725
vn -0.1977 -0.9529 0.2301
vn -0.1972 -0.9802 0.0163
vn 0.0243 -0.9979 -0.0596
vn 0.8942 -0.3598 0.2664
vn 0.1038 -0.3927 0.9138
vn -0.9363 -0.3406 0.0856
vn -0.5938 -0.3346 -0.7317
vn 0.4630 -0.2460 -0.8516
vn 0.7373 -0.1997 0.6454
vn -0.5019 -0.0864 0.8606
vn -0.9595 -0.1724 -0.2229
vn -0.2327 -0.0853 -0.9688
vn 0.8037 0.0341 -0.5940
vn 0.4091 0.7210 0.5593
vn -0.7691 0.6020 0.2145
vn -0.8133 0.5421 -0.2112
vn 0.0547 0.6298 -0.7748
vn 0.7442 0.6110 -0.2698
vn 0.1142 0.9857 -0.1235
vn 0.5419 0.7438 -0.3912
vn 0.4372 0.6122 -0.6588
vn -0.1901 0.9631 -0.1904
vn -0.3000 0.7985 -0.5220
vn -0.6450 0.5886 -0.4875
vn -0.4593 0.8770 0.1408
vn -0.7535 0.6507 0.0939
vn -0.7827 0.5991 0.1688
vn -0.3697 0.8878 0.2741
vn -0.3738 0.8811 0.2898
vn -0.0961 0.6963 0.7113
vn 0.1125 0.9837 0.1405
vn 0.4578 0.8139 0.3578
vn 0.7700 0.6271 0.1175
vn 0.8832 0.2955 -0.3642
vn 0.7913 0.1779 -0.5850
vn 0.5942 0.3094 -0.7424
vn -0.0447 0.2031 -0.9781
vn -0.2346 0.1285 -0.9636
vn -0.6611 0.3658 -0.6551
vn -0.9293 0.2743 -0.2473
vn -0.9698 0.2013 -0.1376
vn -0.9447 0.2785 0.1733
vn -0.7904 0.1548 0.5927
vn -0.5262 0.0182 0.8502
vn -0.1491 0.2400 0.9592
vn 0.6384 0.0812 0.7654
vn 0.7555 0.0294 0.6545
vn 0.9351 0.2523 0.2488
vn 0.1908 0.0579 -0.9799
vn 0.1897 -0.1060 -0.9761
vn 0.0004 -0.2067 -0.9784
vn -0.8647 0.1792 -0.4693
vn -0.8199 -0.1876 -0.5409
vn -0.8904 -0.2755 -0.3623
vn -0.8909 0.0798 0.4471
vn -0.8778 -0.0965 0.4692
vn -0.6481 -0.2857 0.7059
vn 0.3625 -0.1221 0.9239
vn 0.3571 -0.2163 0.9087
vn 0.5457 -0.3302 0.7702
vn 0.9940 0.0750 -0.0792
vn 0.9868 -0.1413 -0.0784
vn 0.9393 -0.2358 -0.2491
vn 0.4286 -0.6254 -0.6520
vn 0.1198 -0.7774 -0.6175
vn -0.0791 -0.6711 -0.7372
vn -0.4123 -0.6678 -0.6198
vn -0.5245 -0.8117 -0.2571
vn -0.5443 -0.8017 -0.2471
vn -0.5741 -0.8105 -0.1164
vn -0.1357 -0.9710 0.1968
vn -0.2085 -0.8201 0.5329
vn 0.7503 -0.6097 -0.2557
vn 0.6227 -0.7817 0.0351
vn 0.1230 -0.9912 0.0492
vn 0.0262 -0.8037 0.5945
vn 0.0449 -0.8210 0.5691
vn 0.4954 -0.6143 0.6142
vt 0.000000 0.000000
vt 0.181819 0.000000
vt 0.227273 0.078731
vt 0.136365 0.078731
vt 0.272728 0.157461
vt 0.318182 0.078731
vt 0.363637 0.157461
vt 0.909091 0.000000
vt 0.954545 0.078731
vt 0.863636 0.078731
vt 0.727273 0.000000
vt 0.772727 0.078731
vt 0.681818 0.078731
vt 0.545455 0.000000
vt 0.590909 0.078731
vt 0.500000 0.078731
vt 0.318182 0.236191
vt 0.090910 0.157461
vt 0.181819 0.157461
vt 0.136365 0.236191
vt 0.818182 0.157461
vt 0.909091 0.157461
vt 0.863636 0.236191
vt 0.636364 0.157461
vt 0.727273 0.157461
vt 0.681818 0.236191
vt 0.454546 0.157461
vt 0.545455 0.157461
vt 0.500000 0.236191
vt 0.227273 0.236191
vt 0.045455 0.236191
vt 0.772727 0.236191
vt 0.590909 0.236191
vt 0.409092 0.236191
vt 0.181819 0.314921
vt 0.272728 0.314921
vt 0.227273 0.393651
vt 0.000000 0.314921
vt 0.090910 0.314921
vt 0.045455 0.393651
vt 0.727273 0.314921
vt 0.818182 0.314921
vt 0.772727 0.393651
vt 0.545455 0.314921
vt 0.636364 0.314921
vt 0.590909 0.393651
vt 0.363637 0.314921
vt 0.454546 0.314921
vt 0.409092 0.393651
vt 0.500000 0.393651
vt 0.454546 0.472382
vt 0.681818 0.393651
vt 0.636364 0.472382
vt 0.863636 0.393651
vt 0.818182 0.472382
vt 0.909091 0.314921
vt 0.136365 0.393651
vt 0.090910 0.472382
vt 0.318182 0.393651
vt 0.272728 0.472382
vt 0.954545 0.236191
vt 1.000000 0.157461
vt 0.409092 0.078731
vt 0.363637 0.000000
s 0
f 19/1/1 10/1/1 9/1/1 18/1/1
f 21/1/2 17/1/2 16/1/2 20/1/2
f 23/1/3 11/1/3 10/1/3 19/1/3
f 24/1/4 8/1/4 17/1/4 21/1/4
f 35/1/5 77/1/5 76/1/5 22/1/5 62/1/5
f 26/1/6 12/1/6 11/1/6 23/1/6
f 18/1/7 9/1/7 8/1/7 24/1/7
f 20/1/8 16/1/8 15/1/8 25/1/8
f 22/1/9 13/1/9 12/1/9 26/1/9
f 9/1/10 10/1/10 11/1/10 12/1/10 13/1/10 14/1/10 15/1/10 16/1/10 17/1/10 8/1/10
f 3/1/11 41/1/11 30/1/11 65/1/11 64/1/11
f 62/1/12 22/1/12 26/1/12 50/1/12
f 32/1/13 31/1/13 74/1/13 73/1/13 59/1/13
f 56/1/14 18/1/14 24/1/14 42/1/14
f 76/1/15 79/1/15 14/1/15 13/1/15 22/1/15
f 42/1/16 24/1/16 21/1/16 31/1/16
f 51/1/17 50/1/17 87/1/17 86/1/17 39/1/17
f 46/1/18 25/1/18 78/1/18 77/1/18 35/1/18
f 59/1/19 73/1/19 72/1/19 46/1/19 47/1/19
f 27/1/20 19/1/20 18/1/20 56/1/20
f 7/1/21 57/1/21 49/1/21 68/1/21 67/1/21
f 30/1/22 29/1/22 55/1/22 54/1/22
f 83/1/23 82/1/23 56/1/23 42/1/23 43/1/23
f 34/1/24 33/1/24 58/1/24 57/1/24
f 33/1/25 32/1/25 59/1/25 58/1/25
f 6/1/26 38/1/26 60/1/26 5/1/26
f 91/1/27 90/1/27 61/1/27 51/1/27 52/1/27
f 36/1/28 35/1/28 62/1/28 61/1/28
f 41/1/29 40/1/29 29/1/29 30/1/29
f 40/1/30 39/1/30 28/1/30 29/1/30
f 50/1/31 26/1/31 23/1/31 84/1/31 87/1/31
f 69/1/32 71/1/32 34/1/32 57/1/32 7/1/32
f 45/1/33 44/1/33 33/1/33 34/1/33
f 44/1/34 43/1/34 32/1/34 33/1/34
f 43/1/35 42/1/35 31/1/35 32/1/35
f 1/1/36 45/1/36 34/1/36 71/1/36 70/1/36
f 49/1/37 48/1/37 37/1/37 38/1/37
f 48/1/38 47/1/38 36/1/38 37/1/38
f 47/1/39 46/1/39 35/1/39 36/1/39
f 4/1/40 53/1/40 41/1/40 3/1/40
f 53/1/41 52/1/41 40/1/41 41/1/41
f 52/1/42 51/1/42 39/1/42 40/1/42
f 39/1/43 86/1/43 85/1/43 27/1/43 28/1/43
f 2/1/44 54/1/44 45/1/44 1/1/44
f 54/1/45 55/1/45 44/1/45 45/1/45
f 29/1/46 28/1/46 81/1/46 80/1/46 55/1/46
f 28/1/47 27/1/47 56/1/47 82/1/47 81/1/47
f 57/1/48 58/1/48 48/1/48 49/1/48
f 58/1/49 59/1/49 47/1/49 48/1/49
f 72/1/50 75/1/50 20/1/50 25/1/50 46/1/50
f 5/1/51 60/1/51 53/1/51 4/1/51
f 38/1/52 37/1/52 89/1/52 88/1/52 60/1/52
f 37/1/53 36/1/53 61/1/53 90/1/53 89/1/53
f 61/1/54 62/1/54 50/1/54 51/1/54
f 63/1/55 64/1/55 65/1/55
f 63/1/56 65/1/56 30/1/56 54/1/56 2/1/56
f 66/1/57 67/1/57 68/1/57
f 66/1/58 68/1/58 49/1/58 38/1/58 6/1/58
f 69/1/59 70/1/59 71/1/59
f 2/1/60 1/1/60 70/1/60 69/1/60 7/1/60 67/1/60 66/1/60 6/1/60 5/1/60 4/1/60 3/1/60 64/1/60 63/1/60
f 72/1/61 73/1/61 74/1/61 75/1/61
f 31/1/62 21/1/62 20/1/62 75/1/62 74/1/62
f 76/1/63 77/1/63 78/1/63 79/1/63
f 25/1/64 15/1/64 14/1/64 79/1/64 78/1/64
f 80/1/65 81/1/65 82/1/65 83/1/65
f 55/1/66 80/1/66 83/1/66 43/1/66 44/1/66
f 84/1/67 85/1/67 86/1/67 87/1/67
f 85/1/68 84/1/68 23/1/68 19/1/68 27/1/68
f 88/1/69 89/1/69 90/1/69 91/1/69
f 60/1/70 88/1/70 91/1/70 52/1/70 53/1/70
f 92/2/71 105/3/71 104/4/71
f 93/5/72 105/6/72 107/7/72
f 92/8/73 104/9/73 109/10/73
f 92/11/74 109/12/74 111/13/74
f 92/14/75 111/15/75 108/16/75
f 93/5/76 107/7/76 114/17/76
f 94/18/77 106/19/77 116/20/77
f 95/21/78 110/22/78 118/23/78
f 96/24/79 112/25/79 120/26/79
f 97/27/80 113/28/80 122/29/80
f 93/5/81 114/17/81 117/30/81
f 94/18/82 116/20/82 119/31/82
f 95/21/83 118/23/83 121/32/83
f 96/24/84 120/26/84 123/33/84
f 97/27/85 122/29/85 115/34/85
f 98/35/86 124/36/86 129/37/86
f 99/38/87 125/39/87 131/40/87
f 100/41/88 126/42/88 132/43/88
f 101/44/89 127/45/89 133/46/89
f 102/47/90 128/48/90 130/49/90
f 130/49/91 133/50/91 103/51/91
f 130/49/92 128/48/92 133/50/92
f 128/48/93 101/44/93 133/50/93
f 133/46/94 132/52/94 103/53/94
f 133/46/95 127/45/95 132/52/95
f 127/45/96 100/41/96 132/52/96
f 132/43/97 131/54/97 103/55/97
f 132/43/98 126/42/98 131/54/98
f 126/42/99 99/56/99 131/54/99
f 131/40/100 129/57/100 103/58/100
f 131/40/101 125/39/101 129/57/101
f 125/39/102 98/35/102 129/57/102
f 129/37/103 130/59/103 103/60/103
f 129/37/104 124/36/104 130/59/104
f 124/36/105 102/47/105 130/59/105
f 115/34/106 128/48/106 102/47/106
f 115/34/107 122/29/107 128/48/107
f 122/29/108 101/44/108 128/48/108
f 123/33/109 127/45/109 101/44/109
f 123/33/110 120/26/110 127/45/110
f 120/26/111 100/41/111 127/45/111
f 121/32/112 126/42/112 100/41/112
f 121/32/113 118/23/113 126/42/113
f 118/23/114 99/56/114 126/42/114
f 119/31/115 125/39/115 99/38/115
f 119/31/116 116/20/116 125/39/116
f 116/20/117 98/35/117 125/39/117
f 117/30/118 124/36/118 98/35/118
f 117/30/119 114/17/119 124/36/119
f 114/17/120 102/47/120 124/36/120
f 122/29/121 123/33/121 101/44/121
f 122/29/122 113/28/122 123/33/122
f 113/28/123 96/24/123 123/33/123
f 120/26/124 121/32/124 100/41/124
f 120/26/125 112/25/125 121/32/125
f 112/25/126 95/21/126 121/32/126
f 118/23/127 119/61/127 99/56/127
f 118/23/128 110/22/128 119/61/128
f 110/22/129 94/62/129 119/61/129
f 116/20/130 117/30/130 98/35/130
f 116/20/131 106/19/131 117/30/131
f 106/19/132 93/5/132 117/30/132
f 114/17/133 115/34/133 102/47/133
f 114/17/134 107/7/134 115/34/134
f 107/7/135 97/27/135 115/34/135
f 108/16/136 113/28/136 97/27/136
f 108/16/137 111/15/137 113/28/137
f 111/15/138 96/24/138 113/28/138
f 111/13/139 112/25/139 96/24/139
f 111/13/140 109/12/140 112/25/140
f 109/12/141 95/21/141 112/25/141
f 109/10/142 110/22/142 95/21/142
f 109/10/143 104/9/143 110/22/143
f 104/9/144 94/62/144 110/22/144
f 107/7/145 108/63/145 97/27/145
f 107/7/146 105/6/146 108/63/146
f 105/6/147 92/64/147 108/63/147
f 104/4/148 106/19/148 94/18/148
f 104/4/149 105/3/149 106/19/149
f 105/3/150 93/5/150 106/19/150
