# Blender 4.4.3
# www.blender.org
mtllib HouseDoor.mtl
o Cube.007
v -0.363442 0.068386 -0.890487
v -0.363442 2.836785 -0.890487
v -0.363442 2.836785 0.888199
v -0.363442 0.068386 0.888199
v -0.470865 -0.011561 -0.967737
v -0.470865 2.916732 -0.967737
v -0.341342 2.916732 -0.967737
v -0.341342 -0.011561 -0.967737
v -0.341342 2.916732 0.862901
v -0.341342 2.810583 0.965506
v -0.341342 2.841673 0.892953
v -0.341342 2.885642 0.935454
v -0.470865 2.810583 0.965506
v -0.470865 2.916732 0.862901
v -0.470865 2.841673 0.892953
v -0.470865 2.885642 0.935454
v -0.341342 0.006485 0.965506
v -0.341342 -0.011561 0.948063
v -0.341342 0.001199 0.953172
v -0.341342 -0.006275 0.960397
v -0.470865 -0.011561 0.948063
v -0.470865 0.006485 0.965506
v -0.470865 0.001199 0.953172
v -0.470865 -0.006275 0.960397
v -0.341342 0.068386 0.888228
v -0.341342 2.836785 0.888228
v -0.470865 2.836785 0.888228
v -0.470865 0.068386 0.888228
v -0.470865 0.068386 -0.890458
v -0.470865 2.836785 -0.890458
v -0.341342 2.836785 -0.890458
v -0.341342 0.068386 -0.890458
v -0.442375 2.836785 0.888265
v -0.442375 0.068386 0.888265
v -0.442375 0.068386 -0.890421
v -0.442375 2.836785 -0.890421
v -0.437954 2.537816 0.487032
v -0.437954 1.608051 0.487032
v -0.446760 1.608051 -0.490137
v -0.446760 2.537816 -0.490137
v -0.359058 1.608051 0.487915
v -0.359058 2.537816 0.487915
v -0.367864 2.537816 -0.489254
v -0.367864 1.608051 -0.489254
v -0.370603 1.554287 0.033845
v -0.370603 2.557575 0.033845
v -0.437864 1.554287 0.031195
v -0.437864 2.557575 0.031195
v -0.367953 1.554287 -0.033417
v -0.367953 2.557575 -0.033417
v -0.435215 1.554287 -0.036067
v -0.435215 2.557575 -0.036067
v -0.370603 2.017505 0.033845
v -0.370603 2.094356 0.033845
v -0.437864 2.094356 0.031195
v -0.437864 2.017505 0.031195
v -0.435215 2.094356 -0.036067
v -0.435215 2.017505 -0.036067
v -0.367953 2.094356 -0.033417
v -0.367953 2.017505 -0.033417
v -0.367111 2.017505 0.506728
v -0.367111 2.094356 0.506728
v -0.434372 2.094356 0.504079
v -0.434372 2.017505 0.504079
v -0.442927 2.094356 -0.543376
v -0.442927 2.017505 -0.543376
v -0.375665 2.094356 -0.540726
v -0.375665 2.017505 -0.540726
v -0.408052 1.028219 -0.797609
v -0.413740 1.028219 0.794977
v -0.273696 0.972569 -0.797954
v -0.279384 0.972569 0.794632
v -0.218043 0.838219 -0.798097
v -0.223731 0.838219 0.794489
v -0.273696 0.703868 -0.797954
v -0.279384 0.703869 0.794632
v -0.408052 0.648219 -0.797609
v -0.413740 0.648219 0.794977
v -0.542409 0.703868 -0.797264
v -0.548097 0.703869 0.795322
v -0.598061 0.838219 -0.797121
v -0.603749 0.838219 0.795465
v -0.542409 0.972569 -0.797264
v -0.548097 0.972569 0.795322
v -0.408052 0.727994 -0.797609
v -0.413740 0.727994 0.794977
v -0.273696 0.672344 -0.797954
v -0.279384 0.672345 0.794632
v -0.218043 0.537994 -0.798097
v -0.223731 0.537994 0.794489
v -0.273696 0.403644 -0.797954
v -0.279384 0.403644 0.794632
v -0.408052 0.347994 -0.797609
v -0.413740 0.347994 0.794977
v -0.542409 0.403644 -0.797264
v -0.548097 0.403644 0.795322
v -0.598061 0.537994 -0.797121
v -0.603749 0.537994 0.795465
v -0.542409 0.672344 -0.797264
v -0.548097 0.672345 0.795322
v -0.408052 1.380130 -0.797609
v -0.413740 1.380130 0.794977
v -0.273696 1.324480 -0.797954
v -0.279384 1.324480 0.794632
v -0.218043 1.190130 -0.798097
v -0.223731 1.190130 0.794489
v -0.273696 1.055779 -0.797954
v -0.279384 1.055779 0.794632
v -0.408052 1.000130 -0.797609
v -0.413740 1.000130 0.794977
v -0.542409 1.055779 -0.797264
v -0.548097 1.055779 0.795322
v -0.598061 1.190130 -0.797121
v -0.603749 1.190130 0.795465
v -0.542409 1.324480 -0.797264
v -0.548097 1.324480 0.795322
vn -0.0000 1.0000 -0.0000
vn -0.0112 -0.0000 0.9999
vn -0.0000 -0.0000 -1.0000
vn -0.0000 -1.0000 -0.0000
vn 1.0000 -0.0000 -0.0000
vn -1.0000 -0.0000 -0.0000
vn -0.0000 0.9192 0.3939
vn -0.0000 0.3717 0.9284
vn -0.0000 -0.9192 0.3939
vn -0.0000 -0.3717 0.9284
vn -0.0000 -0.0000 1.0000
vn 0.0013 -0.0000 -1.0000
vn -0.0013 -0.0000 1.0000
vn -0.9999 -0.0000 -0.0110
vn -1.0000 -0.0000 0.0032
vn -1.0000 -0.0001 0.0032
vn 0.9999 -0.0000 0.0110
vn 1.0000 -0.0000 -0.0032
vn 1.0000 -0.0001 -0.0032
vn 0.0112 -0.0000 -0.9999
vn -0.0394 -0.0000 0.9992
vn -0.9992 -0.0000 -0.0394
vn 0.0394 -0.0000 -0.9992
vn 0.9992 -0.0000 0.0394
vn -1.0000 -0.0000 0.0074
vn 1.0000 -0.0000 -0.0074
vn 0.9999 -0.0000 -0.0152
vn -0.9999 -0.0000 0.0152
vn 0.3827 0.9239 0.0014
vn 0.9239 0.3827 0.0033
vn 0.9239 -0.3827 0.0033
vn 0.3827 -0.9239 0.0014
vn -0.3827 -0.9239 -0.0014
vn -0.9239 -0.3827 -0.0033
vn 0.0026 -0.0000 1.0000
vn -0.9239 0.3827 -0.0033
vn -0.3827 0.9239 -0.0014
vn -0.0026 -0.0000 -1.0000
vt 0.625000 0.500000
vt 0.861731 0.500000
vt 0.861731 0.750000
vt 0.625000 0.750000
vt 0.407350 0.797364
vt 0.592650 0.797364
vt 0.592650 0.452636
vt 0.407350 0.452636
vt 0.375000 0.500000
vt 0.375000 0.750000
vt 0.592650 0.952635
vt 0.592650 0.297364
vt 0.381825 0.759993
vt 0.381825 0.990007
vt 0.376089 0.998405
vt 0.375000 0.997744
vt 0.618175 0.990007
vt 0.618175 0.759993
vt 0.625000 0.986731
vt 0.618592 0.990618
vt 0.127256 0.500000
vt 0.127256 0.750000
vt 0.618175 0.490007
vt 0.618175 0.259993
vt 0.618592 0.259382
vt 0.625000 0.263269
vt 0.381825 0.259993
vt 0.376089 0.251595
vt 0.376541 0.250000
vt 0.615938 0.250000
vt 0.381825 0.490007
vt 0.618592 0.990618
vt 0.615938 1.000000
vt 0.376541 1.000000
vt 0.620469 0.993366
vt 0.622346 0.996114
vt 0.615938 1.000000
vt 0.622346 0.253886
vt 0.620469 0.256634
vt 0.875000 0.500000
vt 0.875000 0.750000
vt 0.625000 0.000000
vt 0.625000 0.250000
vt 0.615938 0.250000
vt 0.615938 0.000000
vt 0.375000 0.252256
vt 0.125000 0.750000
vt 0.125661 0.750000
vt 0.126595 0.750000
vt 0.375000 0.250000
vt 0.375451 0.250000
vt 0.376089 0.250000
vt 0.376541 0.250000
vt 0.125000 0.500000
vt 0.375000 0.000000
vt 0.376541 0.000000
vt 0.407350 0.952636
vt 0.407350 0.297364
vt 0.541667 0.000000
vt 0.541667 0.250000
vt 0.541667 0.500000
vt 0.541667 0.750000
vt 0.625000 1.000000
vt 0.541667 1.000000
vt 0.458333 0.750000
vt 0.458333 1.000000
vt 0.375000 1.000000
vt 0.458333 0.500000
vt 0.458333 0.250000
vt 0.458333 0.000000
vt 1.000000 0.500000
vt 1.000000 1.000000
vt 0.875000 1.000000
vt 0.750000 1.000000
vt 0.750000 0.500000
vt 0.500000 1.000000
vt 0.500000 0.500000
vt 0.250000 1.000000
vt 0.250000 0.500000
vt 0.419706 0.419706
vt 0.250000 0.490000
vt 0.080294 0.419706
vt 0.010000 0.250000
vt 0.080294 0.080294
vt 0.250000 0.010000
vt 0.419706 0.080294
vt 0.490000 0.250000
vt 0.125000 1.000000
vt 0.000000 1.000000
vt 0.000000 0.500000
vt 0.750000 0.490000
vt 0.919706 0.419706
vt 0.990000 0.250000
vt 0.919706 0.080294
vt 0.750000 0.010000
vt 0.580294 0.080294
vt 0.510000 0.250000
vt 0.580294 0.419706
s 0
f 6/1/1 14/2/1 9/3/1 7/4/1
f 44/5/2 43/6/2 40/7/2 39/8/2
f 5/9/3 6/1/3 7/4/3 8/10/3
f 43/6/4 42/11/4 37/12/4 40/7/4
f 32/13/5 25/14/5 19/15/5 18/16/5 8/10/5
f 26/17/5 31/18/5 7/4/5 9/19/5 11/20/5
f 21/21/4 5/9/4 8/10/4 18/22/4
f 30/23/6 27/24/6 15/25/6 14/26/6 6/1/6
f 27/24/6 28/27/6 23/28/6 22/29/6 13/30/6 15/25/6
f 29/31/6 30/23/6 6/1/6 5/9/6
f 31/18/5 32/13/5 8/10/5 7/4/5
f 25/14/5 26/17/5 11/32/5 10/33/5 17/34/5 19/15/5
f 9/35/5 12/36/5 11/32/5
f 12/36/5 10/37/5 11/32/5
f 13/30/6 16/38/6 15/25/6
f 16/38/6 14/39/6 15/25/6
f 9/3/7 14/2/7 16/40/7 12/41/7
f 12/42/8 16/43/8 13/44/8 10/45/8
f 28/27/6 29/31/6 5/9/6 21/46/6 23/28/6
f 17/47/5 20/48/5 19/49/5
f 20/48/5 18/22/5 19/49/5
f 21/50/6 24/51/6 23/52/6
f 24/51/6 22/53/6 23/52/6
f 21/21/9 18/22/9 20/47/9 24/54/9
f 24/50/10 20/55/10 17/56/10 22/53/10
f 17/56/11 10/45/11 13/44/11 22/53/11
f 26/17/12 25/14/12 4/14/12 3/17/12
f 29/31/1 28/27/1 34/27/1 35/31/1
f 30/23/13 29/31/13 35/31/13 36/23/13
f 28/27/12 27/24/12 33/24/12 34/27/12
f 27/24/4 30/23/4 36/23/4 33/24/4
f 25/14/1 32/13/1 1/13/1 4/14/1
f 32/13/13 31/18/13 2/18/13 1/13/13
f 31/18/4 26/17/4 3/17/4 2/18/4
f 41/57/1 44/5/1 39/8/1 38/58/1
f 37/12/14 38/58/14 34/27/14 33/24/14
f 38/58/15 39/8/15 35/31/15 34/27/15
f 40/7/16 37/12/16 33/24/16 36/23/16
f 39/8/14 40/7/14 36/23/14 35/31/14
f 41/57/17 42/11/17 3/17/17 4/14/17
f 43/6/17 44/5/17 1/13/17 2/18/17
f 44/5/18 41/57/18 4/14/18 1/13/18
f 42/11/19 43/6/19 2/18/19 3/17/19
f 42/11/20 41/57/20 38/58/20 37/12/20
f 54/59/21 46/42/21 48/43/21 55/60/21
f 55/60/22 48/43/22 52/1/22 57/61/22
f 57/61/23 52/1/23 50/4/23 59/62/23
f 59/62/24 50/4/24 46/63/24 54/64/24
f 47/54/4 51/9/4 49/10/4 45/47/4
f 52/1/1 48/40/1 46/41/1 50/4/1
f 49/10/24 60/65/24 53/66/24 45/67/24
f 60/65/24 59/62/24 54/64/24 53/66/24
f 51/9/23 58/68/23 60/65/23 49/10/23
f 57/61/1 59/62/1 67/62/1 65/61/1
f 47/50/22 56/69/22 58/68/22 51/9/22
f 56/69/22 55/60/22 57/61/22 58/68/22
f 45/55/21 53/70/21 56/69/21 47/50/21
f 54/59/1 55/60/1 63/60/1 62/59/1
f 61/70/21 62/59/21 63/60/21 64/69/21
f 55/60/25 56/69/25 64/69/25 63/60/25
f 56/69/4 53/70/4 61/70/4 64/69/4
f 53/66/26 54/64/26 62/64/26 61/66/26
f 66/68/23 65/61/23 67/62/23 68/65/23
f 59/62/27 60/65/27 68/65/27 67/62/27
f 58/68/28 57/61/28 65/61/28 66/68/28
f 60/65/4 58/68/4 66/68/4 68/65/4
f 69/71/29 70/72/29 72/73/29 71/40/29
f 71/40/30 72/73/30 74/74/30 73/75/30
f 73/75/31 74/74/31 76/63/31 75/1/31
f 75/1/32 76/63/32 78/76/32 77/77/32
f 77/77/33 78/76/33 80/67/33 79/9/33
f 79/9/34 80/67/34 82/78/34 81/79/34
f 72/80/35 70/81/35 84/82/35 82/83/35 80/84/35 78/85/35 76/86/35 74/87/35
f 81/79/36 82/78/36 84/88/36 83/54/36
f 83/54/37 84/88/37 70/89/37 69/90/37
f 69/91/38 71/92/38 73/93/38 75/94/38 77/95/38 79/96/38 81/97/38 83/98/38
f 85/71/29 86/72/29 88/73/29 87/40/29
f 87/40/30 88/73/30 90/74/30 89/75/30
f 89/75/31 90/74/31 92/63/31 91/1/31
f 91/1/32 92/63/32 94/76/32 93/77/32
f 93/77/33 94/76/33 96/67/33 95/9/33
f 95/9/34 96/67/34 98/78/34 97/79/34
f 88/80/35 86/81/35 100/82/35 98/83/35 96/84/35 94/85/35 92/86/35 90/87/35
f 97/79/36 98/78/36 100/88/36 99/54/36
f 99/54/37 100/88/37 86/89/37 85/90/37
f 85/91/38 87/92/38 89/93/38 91/94/38 93/95/38 95/96/38 97/97/38 99/98/38
f 101/71/29 102/72/29 104/73/29 103/40/29
f 103/40/30 104/73/30 106/74/30 105/75/30
f 105/75/31 106/74/31 108/63/31 107/1/31
f 107/1/32 108/63/32 110/76/32 109/77/32
f 109/77/33 110/76/33 112/67/33 111/9/33
f 111/9/34 112/67/34 114/78/34 113/79/34
f 104/80/35 102/81/35 116/82/35 114/83/35 112/84/35 110/85/35 108/86/35 106/87/35
f 113/79/36 114/78/36 116/88/36 115/54/36
f 115/54/37 116/88/37 102/89/37 101/90/37
f 101/91/38 103/92/38 105/93/38 107/94/38 109/95/38 111/96/38 113/97/38 115/98/38
