# Blender 4.4.3
# www.blender.org
mtllib HouseChimney.mtl
o Cube
v 0.856311 4.775289 2.686808
v 1.043355 7.060545 3.078313
v 1.084310 7.149329 2.348901
v 2.078783 4.803451 2.758875
v 1.793982 7.077837 3.122564
v 2.013695 5.491192 1.964512
v 1.834937 7.166621 2.393152
v 0.881308 7.965340 3.272648
v 0.938096 7.892470 2.337842
v 1.947181 7.915716 2.397330
v 1.890393 7.988586 3.332136
v 0.997227 6.546593 3.070719
v 1.044531 6.649140 2.228231
v 1.911523 6.669112 2.279342
v 1.864218 6.566566 3.121830
v 1.056165 7.957199 3.129052
v 1.094321 7.908238 2.500957
v 1.772324 7.923857 2.540926
v 1.734169 7.972818 3.169022
v 1.158756 7.736972 3.097396
v 1.196912 7.688011 2.469301
v 1.874915 7.703630 2.509271
v 1.836760 7.752591 3.137366
v 0.856311 -0.615673 2.686808
v 2.145483 -0.693737 1.899226
v 2.078783 -0.587512 2.758875
v 0.856311 2.518464 2.686808
v 0.887908 0.792600 2.576832
v 2.078783 0.749638 2.758875
v 2.078783 2.546626 2.758875
v 2.013695 3.006015 1.964512
v 2.145483 0.857620 1.899226
v 1.958769 2.861463 2.456951
v 1.958769 0.931571 2.456951
v 1.042901 0.910473 2.402959
v 1.042901 2.840364 2.402959
v 0.887908 1.590812 2.576832
v 2.078783 1.648132 2.758875
v 2.145483 1.900048 1.899226
v 1.992181 1.896517 1.890189
v 1.958769 1.896517 2.456951
v 1.042901 1.875419 2.402959
v 2.078783 1.813374 2.758875
v 1.042901 2.052882 2.402959
v 0.856311 1.785212 2.686808
v 2.145483 2.091762 1.899226
v 1.992181 2.073980 1.890189
v 1.958769 2.073980 2.456951
v 1.986421 2.073980 1.987901
v 1.986421 1.896517 1.987901
v 1.070552 1.875419 1.933909
v 1.070552 2.052882 1.933909
v 2.070018 0.894023 1.894778
v 1.987779 0.931572 1.964855
v 1.992181 0.970910 1.890189
v 1.071911 0.910473 1.910863
v 0.998476 0.869339 1.831608
v 1.988217 2.861462 1.957436
v 2.062283 2.898509 1.894322
v 1.992181 2.826033 1.890189
v 1.006211 2.874181 1.832064
v 1.072348 2.840364 1.903443
v 1.073185 1.875419 1.889255
v 1.021804 1.874163 1.832983
v 1.021804 2.056693 1.832983
v 1.073185 2.052882 1.889255
v 1.021804 0.893457 1.832983
v 1.073185 0.921857 1.889255
v 1.073185 2.832889 1.889255
v 1.021804 2.858778 1.832983
v 1.109966 5.470374 1.911235
v 0.918850 5.485426 1.880789
v 0.925909 5.559298 1.836722
v 0.918850 -0.715271 1.880789
v 0.978178 -0.720627 1.830411
v 0.933381 0.866217 1.990765
v 0.978178 0.830406 1.830411
v 1.109966 2.984946 1.911235
v 0.918850 2.889621 1.880789
v 0.933381 1.762557 1.990764
v 0.978178 1.873158 1.830411
v 0.978178 2.059743 1.830411
v 0.918850 2.046233 1.880789
v 2.145483 5.560838 1.899226
v 2.145483 2.942477 1.899226
v 0.978178 5.533947 1.830411
v 0.978178 2.915263 1.830411
v 0.856311 1.619970 2.686808
v 0.856311 0.721477 2.686808
v 0.918850 0.822721 1.880789
v 0.918850 1.856171 1.880789
vn -0.9949 0.0900 -0.0449
vn 0.0520 0.2303 -0.9717
vn 0.9881 0.1356 0.0720
vn -0.0586 -0.0095 0.9982
vn -0.0588 -0.0000 0.9983
vn 0.0589 -0.0033 -0.9983
vn 0.9897 -0.1317 0.0569
vn -0.9824 -0.1772 -0.0594
vn -0.0524 -0.2187 0.9744
vn -0.0528 -0.2075 0.9768
vn 0.9845 0.1209 0.1270
vn 0.0588 -0.0000 -0.9983
vn 0.0478 0.3331 -0.9417
vn -0.0183 0.9967 -0.0788
vn -0.9075 -0.4195 -0.0224
vn 0.9075 0.4195 0.0224
vn 0.0542 0.1668 -0.9845
vn -0.0542 -0.1668 0.9845
vn 0.0589 -0.0000 -0.9983
vn -0.9970 -0.0000 -0.0774
vn 0.0156 -0.9922 0.1238
vn 0.9970 -0.0000 0.0774
vn -0.9953 0.0955 -0.0185
vn -0.9983 -0.0000 -0.0588
vn 0.0230 -0.9997 0.0014
vn -0.9983 -0.0000 -0.0589
vn 0.9983 -0.0000 0.0588
vn -0.0230 0.9997 -0.0014
vn 0.6935 -0.6535 -0.3034
vn 0.9983 -0.0000 0.0589
vn -0.6358 -0.6668 -0.3888
vn 0.6770 0.6668 -0.3114
vn 0.0071 0.8849 -0.4658
vn -0.6530 0.6535 -0.3828
vn 0.0477 -0.8849 -0.4634
vn 0.7385 -0.0000 -0.6743
vn -0.3237 -0.4617 -0.8259
vn -0.6473 -0.0000 -0.7623
vn -0.4439 -0.0000 -0.8961
vn 0.5228 -0.0000 -0.8525
vn 0.0567 -0.7378 -0.6727
vn 0.0225 0.7388 -0.6736
vn -0.9611 -0.0000 -0.2761
vn -0.9914 -0.0000 0.1310
vn -0.9274 0.3732 -0.0251
vn -0.9220 -0.3464 -0.1730
vt 0.563346 0.000000
vt 0.625000 0.000000
vt 0.625000 0.250000
vt 0.563346 0.250000
vt 0.625000 0.500000
vt 0.563346 0.500000
vt 0.625000 0.750000
vt 0.563346 0.750000
vt 0.625000 1.000000
vt 0.563346 1.000000
vt 0.375000 0.750000
vt 0.375000 1.000000
vt 0.375000 0.500000
vt 0.375000 0.288233
vt 0.375000 0.473049
vt 0.375000 0.473049
vt 0.375000 0.288233
vt 0.375000 0.261282
vt 0.379491 0.250000
vt 0.375000 0.261282
vt 0.375000 0.031983
vt 0.375000 0.202421
vt 0.375000 0.202421
vt 0.375000 0.031983
vt 0.125000 0.515596
vt 0.136282 0.500000
vt 0.125000 0.750000
vt 0.375000 0.500000
vt 0.375000 0.500000
vt 0.375000 0.000000
vt 0.375000 0.234404
vt 0.375000 0.270204
vt 0.375000 0.270204
vt 0.375000 0.265433
vt 0.375000 0.261282
vt 0.375000 0.234404
vt 0.375000 0.468649
vt 0.375000 0.468649
vt 0.375000 1.000000
vt 0.375000 0.281351
vt 0.375000 0.265433
vt 0.375000 0.484567
vt 0.375000 0.482985
vt 0.375000 0.500000
vt 0.375000 0.468649
vt 0.375000 0.281351
vt 0.375000 0.234404
vt 0.375000 0.270204
vt 0.375000 0.482985
vt 0.375000 0.267015
vt 0.375000 0.265248
vt 0.375000 0.270074
vt 0.375000 0.281351
vt 0.375000 0.468618
vt 0.375000 0.281323
vt 0.375000 0.281328
vt 0.375000 0.270204
vt 0.375000 0.484567
vt 0.375000 0.483152
vt 0.375000 0.267015
vt 0.375000 0.270204
vt 0.375000 0.249774
vt 0.375000 0.234404
s 0
f 12/1/1 2/2/1 3/3/1 13/4/1
f 13/4/2 3/3/2 7/5/2 14/6/2
f 14/6/3 7/5/3 5/7/3 15/8/3
f 15/8/4 5/7/4 2/9/4 12/10/4
f 29/11/5 89/12/5 24/12/5 26/11/5
f 7/5/6 3/3/6 9/3/6 10/5/6
f 5/7/7 7/5/7 10/5/7 11/7/7
f 3/3/8 2/2/8 8/2/8 9/3/8
f 2/9/9 5/7/9 11/7/9 8/9/9
f 4/11/10 15/8/10 12/10/10 1/12/10
f 84/13/11 14/6/11 15/8/11 4/11/11
f 71/14/12 6/15/12 31/16/12 78/17/12
f 86/18/13 73/19/13 13/4/13 14/6/13 84/13/13
f 11/7/14 10/5/14 18/5/14 19/7/14
f 9/3/14 8/2/14 16/2/14 17/3/14
f 8/9/14 11/7/14 19/7/14 16/9/14
f 10/5/14 9/3/14 17/3/14 18/5/14
f 19/7/15 18/5/15 22/5/15 23/7/15
f 17/3/16 16/2/16 20/2/16 21/3/16
f 16/9/17 19/7/17 23/7/17 20/9/17
f 18/5/18 17/3/18 21/3/18 22/5/18
f 20/9/14 23/7/14 22/5/14 21/3/14
f 77/20/19 32/13/19 25/13/19 75/18/19
f 37/21/20 80/22/20 76/23/20 28/24/20
f 74/25/21 75/26/21 25/13/21 26/11/21 24/27/21
f 32/13/22 29/11/22 26/11/22 25/13/22
f 84/13/22 4/11/22 30/11/22 85/28/22
f 39/29/22 38/11/22 29/11/22 32/13/22
f 1/30/23 12/1/23 13/4/23 73/19/23 72/31/23
f 64/32/12 67/33/12 57/34/12 77/35/12 81/18/12
f 89/30/20 90/31/20 74/36/20 24/30/20
f 58/37/24 60/37/24 47/38/24 49/38/24 48/37/24 33/37/24
f 4/11/5 1/12/5 27/39/5 30/11/5
f 38/11/5 88/12/5 89/12/5 29/11/5
f 62/40/25 58/37/25 33/37/25 36/40/25
f 57/41/12 53/42/12 32/13/12 77/18/12
f 47/38/12 60/37/12 59/43/12 85/28/12 46/44/12
f 40/37/26 55/37/26 54/45/26 34/37/26 41/37/26 50/37/26
f 42/40/12 41/37/12 34/37/12 35/46/12
f 45/30/20 83/47/20 91/31/20 88/30/20
f 27/30/20 79/31/20 83/31/20 45/30/20
f 47/38/24 40/37/24 50/37/24 49/38/24
f 41/37/25 42/40/25 51/40/25 50/37/25
f 63/40/27 66/40/27 52/40/27 44/40/27 42/40/27 51/40/27
f 54/37/28 56/46/28 35/46/28 34/37/28
f 43/11/5 45/12/5 88/12/5 38/11/5
f 65/32/12 64/48/12 81/20/12 82/18/12
f 46/44/22 43/11/22 38/11/22 39/29/22
f 85/28/22 30/11/22 43/11/22 46/44/22
f 59/49/12 61/50/12 87/20/12 85/28/12
f 30/11/5 27/39/5 45/12/5 43/11/5
f 56/46/29 57/51/29 67/52/29 68/53/29
f 36/40/12 33/37/12 48/37/12 44/40/12
f 66/40/30 69/40/30 62/40/30 36/40/30 44/40/30 52/40/30
f 56/46/27 68/40/27 63/40/27 51/40/27 42/40/27 35/46/27
f 40/37/12 47/38/12 46/44/12 39/29/12
f 52/40/12 49/37/12 50/37/12 51/40/12
f 42/40/24 44/40/24 52/40/24 51/40/24
f 48/37/27 41/37/27 50/37/27 49/37/27
f 44/40/28 48/37/28 49/37/28 52/40/28
f 53/42/31 54/54/31 55/37/31
f 61/50/32 62/55/32 69/56/32 70/57/32
f 53/42/33 57/41/33 56/46/33 54/37/33
f 53/58/12 55/37/12 40/37/12 39/29/12 32/13/12
f 58/37/34 59/59/34 60/37/34
f 58/37/35 62/40/35 61/50/35 59/49/35
f 61/60/12 70/61/12 65/48/12 82/20/12 87/18/12
f 64/48/36 65/32/36 66/40/36 63/40/36
f 63/40/36 68/40/36 67/33/36 64/32/36
f 69/40/36 66/40/36 65/48/36 70/61/36
f 86/18/37 72/62/37 73/19/37
f 79/31/38 72/63/38 86/18/38 87/20/38
f 74/36/38 90/31/38 77/20/38 75/18/38
f 83/31/38 79/31/38 87/18/38 82/20/38
f 90/63/38 91/63/38 81/18/38 77/35/38
f 91/31/38 83/47/38 82/18/38 81/20/38
f 1/30/20 72/63/20 79/31/20 27/30/20
f 31/16/39 6/15/39 84/13/39 85/28/39
f 71/14/40 78/17/40 87/20/40 86/18/40
f 6/15/41 71/14/41 86/18/41 84/13/41
f 78/17/42 31/16/42 85/28/42 87/20/42
f 37/21/43 28/24/43 89/30/43 88/30/43
f 76/23/44 80/22/44 91/63/44 90/63/44
f 28/24/45 76/23/45 90/63/45 89/30/45
f 80/22/46 37/21/46 88/30/46 91/63/46
