# Blender 4.4.3
# www.blender.org
mtllib HouseTable.mtl
o Cube.006
v -0.913829 0.979999 1.075980
v -1.342772 0.979999 0.647038
v -1.217137 0.979999 0.950346
v -1.342772 1.083822 0.647038
v -0.913829 1.083822 1.075980
v -1.217137 1.083822 0.950346
v -1.342772 0.979999 -0.495077
v -0.913829 0.979999 -0.924020
v -1.217137 0.979999 -0.798385
v -0.913829 1.083822 -0.924020
v -1.342772 1.083822 -0.495077
v -1.217137 1.083822 -0.798385
v 0.657228 0.979999 0.647038
v 0.228285 0.979999 1.075980
v 0.531594 0.979999 0.950346
v 0.228285 1.083822 1.075980
v 0.657228 1.083822 0.647038
v 0.531594 1.083822 0.950346
v 0.228285 0.979999 -0.924020
v 0.657228 0.979999 -0.495077
v 0.531594 0.979999 -0.798385
v 0.657228 1.083822 -0.495077
v 0.228285 1.083822 -0.924020
v 0.531594 1.083822 -0.798385
v 0.228286 0.979999 -0.495077
v 0.228286 0.979999 0.647038
v -0.913829 0.979999 -0.495077
v -0.913829 0.979999 0.647038
v -0.913829 -0.062397 -0.595077
v -0.913829 1.046090 -0.595077
v -0.818723 -0.062397 -0.525979
v -0.818723 1.046090 -0.525979
v -0.855051 -0.062397 -0.414175
v -0.855051 1.046090 -0.414175
v -0.972608 -0.062397 -0.414175
v -0.972608 1.046090 -0.414175
v -1.008935 -0.062397 -0.525979
v -1.008935 1.046090 -0.525979
v 0.228371 -0.062397 -0.595077
v 0.228371 1.046090 -0.595077
v 0.323477 -0.062397 -0.525979
v 0.323477 1.046090 -0.525979
v 0.287150 -0.062397 -0.414175
v 0.287150 1.046090 -0.414175
v 0.169593 -0.062397 -0.414175
v 0.169593 1.046090 -0.414175
v 0.133266 -0.062397 -0.525979
v 0.133266 1.046090 -0.525979
v -0.913829 -0.062397 0.547525
v -0.913829 1.046090 0.547525
v -0.818723 -0.062397 0.616624
v -0.818723 1.046090 0.616624
v -0.855051 -0.062397 0.728427
v -0.855051 1.046090 0.728427
v -0.972608 -0.062397 0.728427
v -0.972608 1.046090 0.728427
v -1.008935 -0.062397 0.616624
v -1.008935 1.046090 0.616624
v 0.228371 -0.062397 0.547525
v 0.228371 1.046090 0.547525
v 0.323477 -0.062397 0.616624
v 0.323477 1.046090 0.616624
v 0.287150 -0.062397 0.728427
v 0.287150 1.046090 0.728427
v 0.169593 -0.062397 0.728427
v 0.169593 1.046090 0.728427
v 0.133266 -0.062397 0.616624
v 0.133266 1.046090 0.616624
vn -0.0000 -0.0000 1.0000
vn 1.0000 -0.0000 -0.0000
vn -0.0000 1.0000 -0.0000
vn -1.0000 -0.0000 -0.0000
vn -0.0000 -0.0000 -1.0000
vn -0.3827 -0.0000 0.9239
vn -0.9239 -0.0000 0.3827
vn -0.3827 -0.0000 -0.9239
vn -0.9239 -0.0000 -0.3827
vn 0.9239 -0.0000 -0.3827
vn 0.3827 -0.0000 -0.9239
vn 0.3827 -0.0000 0.9239
vn 0.9239 -0.0000 0.3827
vn -0.0000 -1.0000 -0.0000
vn 0.5878 -0.0000 -0.8090
vn 0.9511 -0.0000 0.3090
vn -0.9511 -0.0000 0.3090
vn -0.5878 -0.0000 -0.8090
vt 0.375000 0.803618
vt 0.625000 0.803618
vt 0.625000 0.946382
vt 0.375000 0.946382
vt 0.375000 0.553618
vt 0.625000 0.553618
vt 0.625000 0.696382
vt 0.375000 0.696382
vt 0.640704 0.515704
vt 0.678618 0.500000
vt 0.821382 0.500000
vt 0.859296 0.515704
vt 0.875000 0.553618
vt 0.875000 0.696382
vt 0.859296 0.734296
vt 0.821382 0.750000
vt 0.678618 0.750000
vt 0.640704 0.734296
vt 0.375000 0.053618
vt 0.625000 0.053618
vt 0.625000 0.196382
vt 0.375000 0.196382
vt 0.375000 0.303618
vt 0.625000 0.303618
vt 0.625000 0.446382
vt 0.375000 0.446382
vt 0.625000 1.000000
vt 0.375000 1.000000
vt 0.375000 0.000000
vt 0.625000 0.000000
vt 0.375000 0.250000
vt 0.625000 0.250000
vt 0.375000 0.500000
vt 0.625000 0.500000
vt 0.375000 0.750000
vt 0.625000 0.750000
vt 0.321382 0.553618
vt 0.321382 0.500000
vt 0.359296 0.515704
vt 0.321382 0.696382
vt 0.321382 0.750000
vt 0.359296 0.734296
vt 0.178618 0.696382
vt 0.178618 0.553618
vt 0.178618 0.500000
vt 0.178618 0.750000
vt 0.125000 0.696382
vt 0.125000 0.553618
vt 0.140704 0.515704
vt 0.140704 0.734296
vt 1.000000 0.500000
vt 1.000000 1.000000
vt 0.800000 1.000000
vt 0.800000 0.500000
vt 0.600000 1.000000
vt 0.600000 0.500000
vt 0.400000 1.000000
vt 0.400000 0.500000
vt 0.478254 0.324164
vt 0.250000 0.490000
vt 0.021746 0.324164
vt 0.108932 0.055836
vt 0.391068 0.055836
vt 0.200000 1.000000
vt 0.200000 0.500000
vt 0.000000 1.000000
vt 0.000000 0.500000
vt 0.750000 0.490000
vt 0.978254 0.324164
vt 0.891068 0.055836
vt 0.608932 0.055836
vt 0.521746 0.324164
s 0
f 14/1/1 16/2/1 5/3/1 1/4/1
f 20/5/2 22/6/2 17/7/2 13/8/2
f 22/6/3 24/9/3 23/10/3 10/11/3 12/12/3 11/13/3 4/14/3 6/15/3 5/16/3 16/17/3 18/18/3 17/7/3
f 2/19/4 4/20/4 11/21/4 7/22/4
f 8/23/5 10/24/5 23/25/5 19/26/5
f 1/4/6 5/3/6 6/27/6 3/28/6
f 3/29/7 6/30/7 4/20/7 2/19/7
f 10/24/8 8/23/8 9/31/8 12/32/8
f 12/32/9 9/31/9 7/22/9 11/21/9
f 22/6/10 20/5/10 21/33/10 24/34/10
f 24/34/11 21/33/11 19/26/11 23/25/11
f 16/2/12 14/1/12 15/35/12 18/36/12
f 18/36/13 15/35/13 13/8/13 17/7/13
f 25/37/14 19/38/14 21/39/14 20/5/14
f 26/40/14 25/37/14 20/5/14 13/8/14
f 14/41/14 26/40/14 13/8/14 15/42/14
f 28/43/14 27/44/14 25/37/14 26/40/14
f 27/44/14 8/45/14 19/38/14 25/37/14
f 1/46/14 28/43/14 26/40/14 14/41/14
f 2/47/14 7/48/14 27/44/14 28/43/14
f 7/48/14 9/49/14 8/45/14 27/44/14
f 3/50/14 2/47/14 28/43/14 1/46/14
f 29/51/15 30/52/15 32/53/15 31/54/15
f 31/54/16 32/53/16 34/55/16 33/56/16
f 33/56/1 34/55/1 36/57/1 35/58/1
f 32/59/3 30/60/3 38/61/3 36/62/3 34/63/3
f 35/58/17 36/57/17 38/64/17 37/65/17
f 37/65/18 38/64/18 30/66/18 29/67/18
f 29/68/14 31/69/14 33/70/14 35/71/14 37/72/14
f 39/51/15 40/52/15 42/53/15 41/54/15
f 41/54/16 42/53/16 44/55/16 43/56/16
f 43/56/1 44/55/1 46/57/1 45/58/1
f 42/59/3 40/60/3 48/61/3 46/62/3 44/63/3
f 45/58/17 46/57/17 48/64/17 47/65/17
f 47/65/18 48/64/18 40/66/18 39/67/18
f 39/68/14 41/69/14 43/70/14 45/71/14 47/72/14
f 49/51/15 50/52/15 52/53/15 51/54/15
f 51/54/16 52/53/16 54/55/16 53/56/16
f 53/56/1 54/55/1 56/57/1 55/58/1
f 52/59/3 50/60/3 58/61/3 56/62/3 54/63/3
f 55/58/17 56/57/17 58/64/17 57/65/17
f 57/65/18 58/64/18 50/66/18 49/67/18
f 49/68/14 51/69/14 53/70/14 55/71/14 57/72/14
f 59/51/15 60/52/15 62/53/15 61/54/15
f 61/54/16 62/53/16 64/55/16 63/56/16
f 63/56/1 64/55/1 66/57/1 65/58/1
f 62/59/3 60/60/3 68/61/3 66/62/3 64/63/3
f 65/58/17 66/57/17 68/64/17 67/65/17
f 67/65/18 68/64/18 60/66/18 59/67/18
f 59/68/14 61/69/14 63/70/14 65/71/14 67/72/14
